<?xml version="1.0" encoding="UTF-8" standalone="no"?>
<!-- Created with Inkscape (http://www.inkscape.org/) -->

<svg
   xmlns:dc="http://purl.org/dc/elements/1.1/"
   xmlns:cc="http://creativecommons.org/ns#"
   xmlns:rdf="http://www.w3.org/1999/02/22-rdf-syntax-ns#"
   xmlns:svg="http://www.w3.org/2000/svg"
   xmlns="http://www.w3.org/2000/svg"
   xmlns:sodipodi="http://sodipodi.sourceforge.net/DTD/sodipodi-0.dtd"
   xmlns:inkscape="http://www.inkscape.org/namespaces/inkscape"
   width="864"
   height="864"
   viewBox="0 0 864 864"
   id="SVGRoot"
   version="1.1"
   inkscape:version="0.92.1 r15371"
   sodipodi:docname="logo_progress.svg"
   inkscape:export-xdpi="96"
   inkscape:export-ydpi="96"
   enable-background="new">
  <sodipodi:namedview
     id="base"
     pagecolor="#ffffff"
     bordercolor="#666666"
     borderopacity="1.0"
     inkscape:pageopacity="0.0"
     inkscape:pageshadow="2"
     inkscape:zoom="0.92592592"
     inkscape:cx="423.38501"
     inkscape:cy="417.08599"
     inkscape:document-units="px"
     inkscape:current-layer="SVGRoot"
     showgrid="false"
     inkscape:pagecheckerboard="true"
     inkscape:snap-global="false"
     inkscape:window-width="1920"
     inkscape:window-height="1027"
     inkscape:window-x="-8"
     inkscape:window-y="-8"
     inkscape:window-maximized="1" />
  <defs
     id="defs4787">
    <clipPath
       id="patternClipPath"
       clipPathUnits="userSpaceOnUse">
      <rect
         style="color:#000000;display:inline;overflow:visible;visibility:visible;opacity:1;fill:#ffff00;fill-opacity:1;fill-rule:nonzero;stroke:none;stroke-width:20;stroke-linecap:square;stroke-linejoin:miter;stroke-miterlimit:4;stroke-dasharray:none;stroke-dashoffset:1.09889996;stroke-opacity:1;marker:none;enable-background:accumulate"
         id="clipPathRect"
         width="864"
         height="864"
         x="0"
         y="0" />
    </clipPath>
    <marker
       inkscape:isstock="true"
       style="overflow:visible;"
       id="Arrow2Mend"
       refX="0.0"
       refY="0.0"
       orient="auto"
       inkscape:stockid="Arrow2Mend">
      <path
         transform="scale(0.6) rotate(180) translate(0,0)"
         d="M 8.7185878,4.0337352 L -2.2072895,0.016013256 L 8.7185884,-4.0017078 C 6.9730900,-1.6296469 6.9831476,1.6157441 8.7185878,4.0337352 z "
         style="fill-rule:evenodd;stroke-width:0.625;stroke-linejoin:round;stroke:#000000;stroke-opacity:1;fill:#000000;fill-opacity:1"
         id="path19572" />
    </marker>
  </defs>
  <metadata
     id="metadata4790">
    <rdf:RDF>
      <cc:Work
         rdf:about="">
        <dc:format>image/svg+xml</dc:format>
        <dc:type
           rdf:resource="http://purl.org/dc/dcmitype/StillImage" />
        <dc:title></dc:title>
      </cc:Work>
    </rdf:RDF>
  </metadata>
  <inkscape:_templateinfo
     id="_templateinfo10">
    <inkscape:_name
       id="_name12">Seamless Pattern</inkscape:_name>
    <inkscape:_shortdesc
       id="_shortdesc14">Seamless Pattern</inkscape:_shortdesc>
    <inkscape:_keywords
       id="_keywords16">Seamless Pattern</inkscape:_keywords>
  </inkscape:_templateinfo>
  <path
     style="fill:#000000;stroke-width:3.45664787"
     d="M -0.080078125 -0.080078125 L -0.080078125 120.90234 L -0.080078125 241.88477 L 120.90234 241.88477 L 241.88477 241.88477 L 241.88477 120.90234 L 241.88477 -0.080078125 L 120.90234 -0.080078125 L -0.080078125 -0.080078125 z M 311.01758 -0.080078125 L 311.01758 17.203125 L 311.01758 34.486328 L 293.73438 34.486328 L 276.45117 34.486328 L 276.45117 51.769531 L 276.45117 69.052734 L 293.73438 69.052734 L 311.01758 69.052734 L 311.01758 86.335938 L 311.01758 103.61914 L 293.73438 103.61914 L 276.45117 103.61914 L 276.45117 120.90234 L 276.45117 138.18555 L 311.01758 138.18555 L 345.58398 138.18555 L 345.58398 120.90234 L 345.58398 103.61914 L 362.86719 103.61914 L 380.15039 103.61914 L 380.15039 120.90234 L 380.15039 138.18555 L 397.43359 138.18555 L 414.7168 138.18555 L 414.7168 103.61914 L 414.7168 69.052734 L 432 69.052734 L 449.2832 69.052734 L 449.2832 86.335938 L 449.2832 103.61914 L 466.56641 103.61914 L 483.84961 103.61914 L 483.84961 86.335938 L 483.84961 69.052734 L 501.13281 69.052734 L 518.41602 69.052734 L 518.41602 51.769531 L 518.41602 34.486328 L 449.2832 34.486328 L 380.15039 34.486328 L 380.15039 51.769531 L 380.15039 69.052734 L 362.86719 69.052734 L 345.58398 69.052734 L 345.58398 34.486328 L 345.58398 -0.080078125 L 328.30078 -0.080078125 L 311.01758 -0.080078125 z M 414.7168 138.18555 L 414.7168 155.46875 L 414.7168 172.75195 L 432 172.75195 L 449.2832 172.75195 L 449.2832 155.46875 L 449.2832 138.18555 L 432 138.18555 L 414.7168 138.18555 z M 449.2832 172.75195 L 449.2832 190.03516 L 449.2832 207.31836 L 466.56641 207.31836 L 483.84961 207.31836 L 483.84961 190.03516 L 483.84961 172.75195 L 466.56641 172.75195 L 449.2832 172.75195 z M 483.84961 207.31836 L 483.84961 224.60156 L 483.84961 241.88477 L 501.13281 241.88477 L 518.41602 241.88477 L 518.41602 224.60156 L 518.41602 207.31836 L 501.13281 207.31836 L 483.84961 207.31836 z M 518.41602 207.31836 L 535.69922 207.31836 L 552.98242 207.31836 L 552.98242 190.03516 L 552.98242 172.75195 L 535.69922 172.75195 L 518.41602 172.75195 L 518.41602 190.03516 L 518.41602 207.31836 z M 552.98242 207.31836 L 552.98242 241.88477 L 552.98242 274.5 L 587.54883 274.5 L 587.54883 241.88477 L 587.54883 207.31836 L 570.26562 207.31836 L 552.98242 207.31836 z M 483.84961 241.88477 L 466.56641 241.88477 L 449.2832 241.88477 L 449.2832 224.60156 L 449.2832 207.31836 L 432 207.31836 L 414.7168 207.31836 L 414.7168 259.16797 L 414.7168 274.5 L 483.84961 274.5 L 483.84961 259.16797 L 483.84961 241.88477 z M 380.15039 138.18555 L 362.86719 138.18555 L 345.58398 138.18555 L 345.58398 190.03516 L 345.58398 241.88477 L 362.86719 241.88477 L 380.15039 241.88477 L 380.15039 190.03516 L 380.15039 138.18555 z M 552.98242 -0.080078125 L 552.98242 17.203125 L 552.98242 34.486328 L 570.26562 34.486328 L 587.54883 34.486328 L 587.54883 17.203125 L 587.54883 -0.080078125 L 570.26562 -0.080078125 L 552.98242 -0.080078125 z M 622.11523 -0.080078125 L 622.11523 120.90234 L 622.11523 241.88477 L 743.09766 241.88477 L 864.08008 241.88477 L 864.08008 120.90234 L 864.08008 -0.080078125 L 743.09766 -0.080078125 L 622.11523 -0.080078125 z M 34.486328 34.486328 L 120.90234 34.486328 L 207.31836 34.486328 L 207.31836 120.90234 L 207.31836 207.31836 L 120.90234 207.31836 L 34.486328 207.31836 L 34.486328 120.90234 L 34.486328 34.486328 z M 656.68164 34.486328 L 743.09766 34.486328 L 829.51367 34.486328 L 829.51367 120.90234 L 829.51367 207.31836 L 743.09766 207.31836 L 656.68164 207.31836 L 656.68164 120.90234 L 656.68164 34.486328 z M 69.052734 69.052734 L 69.052734 120.90234 L 69.052734 172.75195 L 120.90234 172.75195 L 172.75195 172.75195 L 172.75195 120.90234 L 172.75195 69.052734 L 120.90234 69.052734 L 69.052734 69.052734 z M 552.98242 69.052734 L 552.98242 86.335938 L 552.98242 103.61914 L 535.69922 103.61914 L 518.41602 103.61914 L 518.41602 120.90234 L 518.41602 138.18555 L 552.98242 138.18555 L 587.54883 138.18555 L 587.54883 103.61914 L 587.54883 69.052734 L 570.26562 69.052734 L 552.98242 69.052734 z M 691.24805 69.052734 L 691.24805 120.90234 L 691.24805 172.75195 L 743.09766 172.75195 L 794.94727 172.75195 L 794.94727 120.90234 L 794.94727 69.052734 L 743.09766 69.052734 L 691.24805 69.052734 z M 276.45117 172.75195 L 276.45117 207.31836 L 276.45117 241.88477 L 293.73438 241.88477 L 311.01758 241.88477 L 311.01758 207.31836 L 311.01758 172.75195 L 293.73438 172.75195 L 276.45117 172.75195 z M -0.080078125 276.45117 L -0.080078125 345.58398 L -0.080078125 414.7168 L 0 414.7168 L 0 276.45117 L -0.080078125 276.45117 z M 864 311.01758 L 864 345.58398 L 864.08008 345.58398 L 864.08008 328.30078 L 864.08008 311.01758 L 864 311.01758 z M 864 414.7168 L 864 449.2832 L 864.08008 449.2832 L 864.08008 432 L 864.08008 414.7168 L 864 414.7168 z M -0.080078125 449.2832 L -0.080078125 518.41602 L -0.080078125 587.54883 L 0 587.54883 L 0 449.2832 L -0.080078125 449.2832 z M 864 483.84961 L 864 589.5 L 829.51367 589.5 L 829.51367 622.11523 L 794.94727 622.11523 L 760.38086 622.11523 L 760.38086 639.39844 L 760.38086 656.68164 L 812.23047 656.68164 L 864.08008 656.68164 L 864.08008 570.26562 L 864.08008 483.84961 L 864 483.84961 z M 760.38086 656.68164 L 743.09766 656.68164 L 725.81445 656.68164 L 725.81445 622.11523 L 725.81445 589.5 L 691.24805 589.5 L 691.24805 639.39844 L 691.24805 691.24805 L 639.39844 691.24805 L 587.54883 691.24805 L 587.54883 639.39844 L 587.54883 589.5 L 518.41602 589.5 L 518.41602 604.83203 L 518.41602 622.11523 L 535.69922 622.11523 L 552.98242 622.11523 L 552.98242 673.96484 L 552.98242 725.81445 L 535.69922 725.81445 L 518.41602 725.81445 L 518.41602 673.96484 L 518.41602 622.11523 L 414.7168 622.11523 L 311.01758 622.11523 L 311.01758 604.83203 L 311.01758 589.5 L 276.45117 589.5 L 276.45117 622.11523 L 276.45117 656.68164 L 293.73438 656.68164 L 311.01758 656.68164 L 311.01758 673.96484 L 311.01758 691.24805 L 293.73438 691.24805 L 276.45117 691.24805 L 276.45117 777.66406 L 276.45117 864.08008 L 311.01758 864.08008 L 345.58398 864.08008 L 345.58398 846.79688 L 345.58398 829.51367 L 328.30078 829.51367 L 311.01758 829.51367 L 311.01758 812.23047 L 311.01758 794.94727 L 328.30078 794.94727 L 345.58398 794.94727 L 345.58398 812.23047 L 345.58398 829.51367 L 362.86719 829.51367 L 380.15039 829.51367 L 380.15039 794.94727 L 380.15039 760.38086 L 362.86719 760.38086 L 345.58398 760.38086 L 345.58398 743.09766 L 345.58398 725.81445 L 380.15039 725.81445 L 414.7168 725.81445 L 414.7168 777.66406 L 414.7168 829.51367 L 432 829.51367 L 449.2832 829.51367 L 449.2832 846.79688 L 449.2832 864.08008 L 483.84961 864.08008 L 518.41602 864.08008 L 518.41602 846.79688 L 518.41602 829.51367 L 501.13281 829.51367 L 483.84961 829.51367 L 483.84961 794.94727 L 483.84961 760.38086 L 466.56641 760.38086 L 449.2832 760.38086 L 449.2832 725.81445 L 449.2832 691.24805 L 432 691.24805 L 414.7168 691.24805 L 414.7168 673.96484 L 414.7168 656.68164 L 449.2832 656.68164 L 483.84961 656.68164 L 483.84961 708.53125 L 483.84961 760.38086 L 501.13281 760.38086 L 518.41602 760.38086 L 518.41602 777.66406 L 518.41602 794.94727 L 535.69922 794.94727 L 552.98242 794.94727 L 552.98242 777.66406 L 552.98242 760.38086 L 570.26562 760.38086 L 587.54883 760.38086 L 587.54883 777.66406 L 587.54883 794.94727 L 570.26562 794.94727 L 552.98242 794.94727 L 552.98242 812.23047 L 552.98242 829.51367 L 570.26562 829.51367 L 587.54883 829.51367 L 587.54883 846.79688 L 587.54883 864.08008 L 604.83203 864.08008 L 622.11523 864.08008 L 622.11523 846.79688 L 622.11523 829.51367 L 691.24805 829.51367 L 760.38086 829.51367 L 760.38086 812.23047 L 760.38086 794.94727 L 743.09766 794.94727 L 725.81445 794.94727 L 725.81445 760.38086 L 725.81445 725.81445 L 743.09766 725.81445 L 760.38086 725.81445 L 760.38086 691.24805 L 760.38086 656.68164 z M 760.38086 794.94727 L 777.66406 794.94727 L 794.94727 794.94727 L 794.94727 777.66406 L 794.94727 760.38086 L 777.66406 760.38086 L 760.38086 760.38086 L 760.38086 777.66406 L 760.38086 794.94727 z M 794.94727 760.38086 L 812.23047 760.38086 L 829.51367 760.38086 L 829.51367 777.66406 L 829.51367 794.94727 L 846.79688 794.94727 L 864.08008 794.94727 L 864.08008 760.38086 L 864.08008 725.81445 L 829.51367 725.81445 L 794.94727 725.81445 L 794.94727 743.09766 L 794.94727 760.38086 z M 829.51367 794.94727 L 812.23047 794.94727 L 794.94727 794.94727 L 794.94727 812.23047 L 794.94727 829.51367 L 777.66406 829.51367 L 760.38086 829.51367 L 760.38086 846.79688 L 760.38086 864.08008 L 812.23047 864.08008 L 864.08008 864.08008 L 864.08008 846.79688 L 864.08008 829.51367 L 846.79688 829.51367 L 829.51367 829.51367 L 829.51367 812.23047 L 829.51367 794.94727 z M -0.080078125 622.11523 L -0.080078125 743.09766 L -0.080078125 864.08008 L 120.90234 864.08008 L 241.88477 864.08008 L 241.88477 743.09766 L 241.88477 622.11523 L 120.90234 622.11523 L -0.080078125 622.11523 z M 622.11523 622.11523 L 622.11523 639.39844 L 622.11523 656.68164 L 639.39844 656.68164 L 656.68164 656.68164 L 656.68164 639.39844 L 656.68164 622.11523 L 639.39844 622.11523 L 622.11523 622.11523 z M 34.486328 656.68164 L 120.90234 656.68164 L 207.31836 656.68164 L 207.31836 743.09766 L 207.31836 829.51367 L 120.90234 829.51367 L 34.486328 829.51367 L 34.486328 743.09766 L 34.486328 656.68164 z M 345.58398 656.68164 L 362.86719 656.68164 L 380.15039 656.68164 L 380.15039 673.96484 L 380.15039 691.24805 L 362.86719 691.24805 L 345.58398 691.24805 L 345.58398 673.96484 L 345.58398 656.68164 z M 69.052734 691.24805 L 69.052734 743.09766 L 69.052734 794.94727 L 120.90234 794.94727 L 172.75195 794.94727 L 172.75195 743.09766 L 172.75195 691.24805 L 120.90234 691.24805 L 69.052734 691.24805 z M 656.68164 725.81445 L 673.96484 725.81445 L 691.24805 725.81445 L 691.24805 760.38086 L 691.24805 794.94727 L 656.68164 794.94727 L 622.11523 794.94727 L 622.11523 777.66406 L 622.11523 760.38086 L 639.39844 760.38086 L 656.68164 760.38086 L 656.68164 743.09766 L 656.68164 725.81445 z "
     id="path7579" />
  <path
     style="opacity:1;fill:#a4ce4c;fill-opacity:1;stroke:none;stroke-width:16.96087456;stroke-linecap:square;stroke-linejoin:miter;stroke-miterlimit:4;stroke-dasharray:none;stroke-dashoffset:0;stroke-opacity:1;paint-order:normal"
     d="M 0 274.5 L 0 589.5 L 864 589.5 L 864 274.5 L 0 274.5 z M 451.20508 340.00781 C 465.26758 340.00781 477.33485 341.48416 487.4043 344.43555 C 497.47374 347.38694 510.0599 353.20226 525.16406 361.88281 C 532.36892 365.96267 536.75195 368.00195 538.31445 368.00195 C 539.87695 368.00195 541.87413 366.87413 544.30469 364.61719 L 547.68945 366.96094 L 522.95117 404.07031 L 519.43555 401.72656 C 519.60916 400.33767 519.69531 399.1658 519.69531 398.21094 C 519.69531 395.69358 518.60959 393.34983 516.43945 391.17969 C 514.26931 388.92274 510.40712 386.23242 504.85156 383.10742 C 489.48698 374.42687 473.21094 370.08594 456.02344 370.08594 C 435.71094 370.08594 419.52105 375.16406 407.45508 385.32031 C 393.21897 397.21267 386.10156 412.75152 386.10156 431.93555 C 386.10156 451.11957 393.21897 466.65647 407.45508 478.54883 C 419.52105 488.70508 435.71094 493.7832 456.02344 493.7832 C 473.21094 493.7832 489.48698 489.44423 504.85156 480.76367 C 510.40712 477.63867 514.26931 474.99045 516.43945 472.82031 C 518.60959 470.56337 519.69531 468.17556 519.69531 465.6582 C 519.69531 464.70334 519.60916 463.57552 519.43555 462.27344 L 522.95117 459.79883 L 547.68945 496.9082 L 544.30469 499.25195 C 541.87413 496.99501 539.87695 495.86719 538.31445 495.86719 C 536.75195 495.86719 532.36892 497.95052 525.16406 502.11719 C 510.23351 510.71094 497.64735 516.52626 487.4043 519.56445 C 477.24805 522.51584 465.13867 523.99219 451.07617 523.99219 C 423.03798 523.99219 400.0332 517.35156 382.06445 504.07031 C 371.47418 496.34462 363.14084 486.75325 357.06445 475.29492 C 350.0332 462.18728 346.51758 447.73416 346.51758 431.93555 C 346.51758 410.40777 352.81163 391.69987 365.39844 375.81445 C 384.32205 351.94293 412.92383 340.00781 451.20508 340.00781 z M 675.16406 340.00781 C 689.22656 340.00781 701.29188 341.48416 711.36133 344.43555 C 721.43077 347.38694 734.01888 353.20226 749.12305 361.88281 C 756.32791 365.96267 760.71094 368.00195 762.27344 368.00195 C 763.83594 368.00195 765.83312 366.87413 768.26367 364.61719 L 771.64844 366.96094 L 746.9082 404.07031 L 743.39258 401.72656 C 743.56619 400.33767 743.6543 399.1658 743.6543 398.21094 C 743.6543 395.69358 742.56858 393.34983 740.39844 391.17969 C 738.2283 388.92274 734.3661 386.23242 728.81055 383.10742 C 713.44596 374.42687 697.16992 370.08594 679.98242 370.08594 C 659.66992 370.08594 643.48003 375.16406 631.41406 385.32031 C 617.17795 397.21267 610.06055 412.75152 610.06055 431.93555 C 610.06055 451.11957 617.17795 466.65647 631.41406 478.54883 C 643.48003 488.70508 659.66992 493.7832 679.98242 493.7832 C 697.16992 493.7832 713.44596 489.44423 728.81055 480.76367 C 734.3661 477.63867 738.2283 474.99045 740.39844 472.82031 C 742.56858 470.56337 743.6543 468.17556 743.6543 465.6582 C 743.6543 464.70334 743.56619 463.57552 743.39258 462.27344 L 746.9082 459.79883 L 771.64844 496.9082 L 768.26367 499.25195 C 765.83312 496.99501 763.83594 495.86719 762.27344 495.86719 C 760.71094 495.86719 756.32791 497.95052 749.12305 502.11719 C 734.19249 510.71094 721.60438 516.52626 711.36133 519.56445 C 701.20508 522.51584 689.0957 523.99219 675.0332 523.99219 C 646.99501 523.99219 623.99219 517.35156 606.02344 504.07031 C 595.43316 496.34462 587.09983 486.75325 581.02344 475.29492 C 573.99219 462.18728 570.47656 447.73416 570.47656 431.93555 C 570.47656 410.40777 576.77062 391.69987 589.35742 375.81445 C 608.28103 351.94293 636.88281 340.00781 675.16406 340.00781 z M 92.351562 343.13281 L 160.8418 343.13281 L 160.8418 347.29883 C 156.76194 348.34049 154.7207 350.7283 154.7207 354.46094 C 154.7207 356.19705 155.32964 358.19423 156.54492 360.45117 L 204.98242 449.77344 L 254.07031 362.01367 C 256.24045 358.02062 257.32617 355.11198 257.32617 353.28906 C 257.32617 349.73003 255.15473 347.73286 250.81445 347.29883 L 250.81445 343.13281 L 318.00195 343.13281 L 318.00195 347.29883 C 314.87695 348.16688 312.70747 349.29666 311.49219 350.68555 C 310.27691 352.07444 309.66992 354.06966 309.66992 356.67383 L 309.66992 507.19531 C 309.66992 509.88628 310.27691 511.92556 311.49219 513.31445 C 312.70747 514.70334 314.87695 515.83312 318.00195 516.70117 L 318.00195 520.86719 L 262.5332 520.86719 L 262.5332 516.70117 C 265.5714 515.91992 267.69878 514.8342 268.91406 513.44531 C 270.21615 511.96962 270.86719 509.88628 270.86719 507.19531 L 270.86719 398.08008 L 201.72656 518.39258 L 136.23242 398.08008 L 136.23242 507.19531 C 136.23242 509.88628 136.83941 511.92556 138.05469 513.31445 C 139.26997 514.70334 141.43945 515.83312 144.56445 516.70117 L 144.56445 520.86719 L 92.351562 520.86719 L 92.351562 516.70117 C 95.476562 515.83312 97.64605 514.70334 98.861328 513.31445 C 100.07661 511.92556 100.68555 509.88628 100.68555 507.19531 L 100.68555 356.67383 C 100.68555 354.06966 100.07661 352.07444 98.861328 350.68555 C 97.64605 349.29666 95.476562 348.16688 92.351562 347.29883 L 92.351562 343.13281 z "
     id="rect7598" />
</svg>
